<svg width="260" height="48" viewBox="0 0 260 48" fill="none" xmlns="http://www.w3.org/2000/svg">
<rect width="260" height="48" rx="6" fill="white"/>
<mask id="mask0_453_4293" style="mask-type:luminance" maskUnits="userSpaceOnUse" x="66" y="14" width="20" height="20">
<path d="M86 14H66V34H86V14Z" fill="white"/>
</mask>
<g mask="url(#mask0_453_4293)">
<path d="M87.6 24.2273C87.6 23.5182 87.5364 22.8364 87.4182 22.1818H78V26.05H83.3818C83.15 27.3 82.4455 28.3591 81.3864 29.0682V31.5773H84.6182C86.5091 29.8364 87.6 27.2727 87.6 24.2273Z" fill="#4285F4"/>
<path d="M77.9999 34C80.6999 34 82.9635 33.1045 84.618 31.5773L81.3862 29.0682C80.4908 29.6682 79.3453 30.0227 77.9999 30.0227C75.3953 30.0227 73.1908 28.2636 72.4044 25.9H69.0635V28.4909C70.709 31.7591 74.0908 34 77.9999 34Z" fill="#34A853"/>
<path d="M72.4045 25.9001C72.2045 25.3001 72.0909 24.6592 72.0909 24.0001C72.0909 23.341 72.2045 22.7001 72.4045 22.1001V19.5092H69.0636C68.3864 20.8592 68 22.3865 68 24.0001C68 25.6137 68.3864 27.141 69.0636 28.491L72.4045 25.9001Z" fill="#FBBC04"/>
<path d="M77.9999 17.9773C79.468 17.9773 80.7862 18.4818 81.8226 19.4727L84.6908 16.6045C82.959 14.9909 80.6953 14 77.9999 14C74.0908 14 70.709 16.2409 69.0635 19.5091L72.4044 22.1C73.1908 19.7364 75.3953 17.9773 77.9999 17.9773Z" fill="#E94235"/>
</g>
<path d="M103.336 17.6H112.472V18.944H103.336V17.6ZM101.736 23.856H114.952V25.216H101.736V23.856ZM107.448 24.8H109.144V31.328H107.448V24.8ZM111.656 17.6H113.304V18.88C113.304 19.392 113.293 19.936 113.272 20.512C113.261 21.088 113.213 21.7227 113.128 22.416C113.053 23.0987 112.925 23.856 112.744 24.688L111.08 24.48C111.368 23.2853 111.533 22.24 111.576 21.344C111.629 20.448 111.656 19.6267 111.656 18.88V17.6ZM118.119 17.296H127.463V18.64H118.119V17.296ZM116.455 22H129.703V23.36H116.455V22ZM126.407 17.296H128.055V18.256C128.055 18.7787 128.039 19.3813 128.007 20.064C127.975 20.7467 127.863 21.5307 127.671 22.416L126.023 22.24C126.215 21.376 126.327 20.624 126.359 19.984C126.391 19.344 126.407 18.768 126.407 18.256V17.296ZM117.975 24.592H128.071V28.48H119.671V30.272H118.007V27.232H126.407V25.92H117.975V24.592ZM118.007 29.856H128.439V31.184H118.007V29.856ZM134.767 28.224H148.015V29.6H134.767V28.224ZM140.527 25.248H142.207V28.784H140.527V25.248ZM136.335 17.712H146.447V22.352H138.015V25.056H136.367V21.024H144.783V19.072H136.335V17.712ZM136.367 24.384H146.783V25.728H136.367V24.384ZM150.894 18.16H160.222V19.504H150.894V18.16ZM149.486 27.904H162.702V29.28H149.486V27.904ZM159.342 18.16H161.006V19.744C161.006 20.384 160.995 21.056 160.974 21.76C160.963 22.4533 160.921 23.216 160.846 24.048C160.771 24.8693 160.643 25.7973 160.462 26.832L158.782 26.672C158.974 25.7013 159.107 24.8107 159.182 24C159.257 23.1893 159.299 22.432 159.31 21.728C159.331 21.024 159.342 20.3627 159.342 19.744V18.16ZM174.573 16.704H176.253V27.312H174.573V16.704ZM166.717 29.664H176.669V31.024H166.717V29.664ZM166.717 26.24H168.381V30.192H166.717V26.24ZM168.365 17.68C169.101 17.68 169.762 17.8347 170.349 18.144C170.935 18.4533 171.399 18.8853 171.741 19.44C172.082 19.984 172.253 20.6133 172.253 21.328C172.253 22.032 172.082 22.6613 171.741 23.216C171.399 23.7707 170.935 24.2027 170.349 24.512C169.762 24.8213 169.101 24.976 168.365 24.976C167.629 24.976 166.967 24.8213 166.381 24.512C165.794 24.2027 165.33 23.7707 164.989 23.216C164.647 22.6613 164.477 22.032 164.477 21.328C164.477 20.6133 164.647 19.984 164.989 19.44C165.33 18.8853 165.794 18.4533 166.381 18.144C166.967 17.8347 167.629 17.68 168.365 17.68ZM168.365 19.136C167.938 19.136 167.554 19.2267 167.213 19.408C166.871 19.5893 166.605 19.8453 166.413 20.176C166.221 20.496 166.125 20.88 166.125 21.328C166.125 21.776 166.221 22.1653 166.413 22.496C166.605 22.816 166.871 23.0667 167.213 23.248C167.554 23.4293 167.938 23.52 168.365 23.52C168.791 23.52 169.175 23.4293 169.517 23.248C169.858 23.0667 170.125 22.816 170.317 22.496C170.519 22.1653 170.621 21.776 170.621 21.328C170.621 20.88 170.519 20.496 170.317 20.176C170.125 19.8453 169.858 19.5893 169.517 19.408C169.175 19.2267 168.791 19.136 168.365 19.136Z" fill="black" fill-opacity="0.85"/>
</svg>
