<svg width="260" height="48" viewBox="0 0 260 48" fill="none" xmlns="http://www.w3.org/2000/svg">
<rect width="260" height="48" rx="6" fill="#FEE500"/>
<g clip-path="url(#clip0_453_4304)">
<path fill-rule="evenodd" clip-rule="evenodd" d="M80 15.6C75.0292 15.6 71 18.7129 71 22.5523C71 24.94 72.5584 27.0449 74.9315 28.2969L73.933 31.9445C73.8448 32.2668 74.2134 32.5237 74.4965 32.3369L78.8733 29.4482C79.2427 29.4838 79.6181 29.5046 80 29.5046C84.9705 29.5046 88.9999 26.3918 88.9999 22.5523C88.9999 18.7129 84.9705 15.6 80 15.6Z" fill="black"/>
</g>
<path d="M103.64 18.16H105.272C105.272 19.248 105.176 20.304 104.984 21.328C104.803 22.3413 104.467 23.312 103.976 24.24C103.496 25.1573 102.824 26.016 101.96 26.816C101.107 27.616 100.013 28.352 98.68 29.024L97.784 27.728C98.9253 27.1627 99.8747 26.544 100.632 25.872C101.389 25.2 101.987 24.48 102.424 23.712C102.861 22.9333 103.171 22.1013 103.352 21.216C103.544 20.32 103.64 19.3707 103.64 18.368V18.16ZM98.632 18.16H104.632V19.504H98.632V18.16ZM103.56 21.776V23.056L98.104 23.584L97.88 22.128L103.56 21.776ZM107.384 16.688H109.064V31.312H107.384V16.688ZM108.632 22.464H111.272V23.856H108.632V22.464ZM118.359 18.16H119.991C119.991 19.248 119.895 20.304 119.703 21.328C119.521 22.3413 119.185 23.312 118.695 24.24C118.215 25.1573 117.543 26.016 116.679 26.816C115.825 27.616 114.732 28.352 113.399 29.024L112.503 27.728C113.644 27.1627 114.593 26.544 115.351 25.872C116.108 25.2 116.705 24.48 117.143 23.712C117.58 22.9333 117.889 22.1013 118.071 21.216C118.263 20.32 118.359 19.3707 118.359 18.368V18.16ZM113.351 18.16H119.351V19.504H113.351V18.16ZM118.279 21.776V23.056L112.823 23.584L112.599 22.128L118.279 21.776ZM122.103 16.688H123.783V31.312H122.103V16.688ZM123.351 22.464H125.991V23.856H123.351V22.464ZM132.934 24.944H134.614V28.448H132.934V24.944ZM133.782 17.568C134.816 17.568 135.734 17.728 136.534 18.048C137.344 18.368 137.984 18.8213 138.454 19.408C138.923 19.9947 139.158 20.6827 139.158 21.472C139.158 22.272 138.923 22.9653 138.454 23.552C137.984 24.1387 137.344 24.5973 136.534 24.928C135.734 25.248 134.816 25.408 133.782 25.408C132.747 25.408 131.824 25.248 131.014 24.928C130.203 24.5973 129.563 24.1387 129.094 23.552C128.624 22.9653 128.39 22.272 128.39 21.472C128.39 20.6827 128.624 19.9947 129.094 19.408C129.563 18.8213 130.203 18.368 131.014 18.048C131.824 17.728 132.747 17.568 133.782 17.568ZM133.782 18.896C133.046 18.896 132.395 19.0027 131.83 19.216C131.275 19.4187 130.838 19.712 130.518 20.096C130.198 20.48 130.038 20.9387 130.038 21.472C130.038 22.0053 130.198 22.4693 130.518 22.864C130.838 23.248 131.275 23.5467 131.83 23.76C132.395 23.9627 133.046 24.064 133.782 24.064C134.507 24.064 135.152 23.9627 135.718 23.76C136.283 23.5467 136.726 23.248 137.046 22.864C137.366 22.4693 137.526 22.0053 137.526 21.472C137.526 20.9387 137.366 20.48 137.046 20.096C136.726 19.712 136.283 19.4187 135.718 19.216C135.152 19.0027 134.507 18.896 133.782 18.896ZM127.174 28.144H140.422V29.52H127.174V28.144ZM145.486 28.224H158.734V29.6H145.486V28.224ZM151.246 25.248H152.926V28.784H151.246V25.248ZM147.054 17.712H157.166V22.352H148.734V25.056H147.086V21.024H155.502V19.072H147.054V17.712ZM147.086 24.384H157.502V25.728H147.086V24.384ZM161.613 18.16H170.941V19.504H161.613V18.16ZM160.205 27.904H173.421V29.28H160.205V27.904ZM170.061 18.16H171.725V19.744C171.725 20.384 171.714 21.056 171.693 21.76C171.682 22.4533 171.639 23.216 171.565 24.048C171.49 24.8693 171.362 25.7973 171.181 26.832L169.501 26.672C169.693 25.7013 169.826 24.8107 169.901 24C169.975 23.1893 170.018 22.432 170.029 21.728C170.05 21.024 170.061 20.3627 170.061 19.744V18.16ZM185.292 16.704H186.972V27.312H185.292V16.704ZM177.436 29.664H187.388V31.024H177.436V29.664ZM177.436 26.24H179.1V30.192H177.436V26.24ZM179.084 17.68C179.82 17.68 180.481 17.8347 181.068 18.144C181.654 18.4533 182.118 18.8853 182.46 19.44C182.801 19.984 182.972 20.6133 182.972 21.328C182.972 22.032 182.801 22.6613 182.46 23.216C182.118 23.7707 181.654 24.2027 181.068 24.512C180.481 24.8213 179.82 24.976 179.084 24.976C178.348 24.976 177.686 24.8213 177.1 24.512C176.513 24.2027 176.049 23.7707 175.708 23.216C175.366 22.6613 175.196 22.032 175.196 21.328C175.196 20.6133 175.366 19.984 175.708 19.44C176.049 18.8853 176.513 18.4533 177.1 18.144C177.686 17.8347 178.348 17.68 179.084 17.68ZM179.084 19.136C178.657 19.136 178.273 19.2267 177.932 19.408C177.59 19.5893 177.324 19.8453 177.132 20.176C176.94 20.496 176.844 20.88 176.844 21.328C176.844 21.776 176.94 22.1653 177.132 22.496C177.324 22.816 177.59 23.0667 177.932 23.248C178.273 23.4293 178.657 23.52 179.084 23.52C179.51 23.52 179.894 23.4293 180.236 23.248C180.577 23.0667 180.844 22.816 181.036 22.496C181.238 22.1653 181.34 21.776 181.34 21.328C181.34 20.88 181.238 20.496 181.036 20.176C180.844 19.8453 180.577 19.5893 180.236 19.408C179.894 19.2267 179.51 19.136 179.084 19.136Z" fill="black" fill-opacity="0.85"/>
<defs>
<clipPath id="clip0_453_4304">
<rect width="17.9999" height="18" fill="white" transform="translate(71 15)"/>
</clipPath>
</defs>
</svg>
