<svg width="260" height="48" viewBox="0 0 260 48" fill="none" xmlns="http://www.w3.org/2000/svg">
<rect width="260" height="48" rx="6" fill="#03C75A"/>
<g clip-path="url(#clip0_453_4305)">
<path d="M79.3491 24.5627L73.4169 16H68.5V32H73.6509V23.436L79.5831 32H84.5V16H79.3491V24.5627Z" fill="white"/>
</g>
<path d="M100.876 18.192H102.524V26.72H100.876V18.192ZM100.876 26.272H101.852C102.716 26.272 103.548 26.2453 104.348 26.192C105.148 26.1387 105.996 26.0213 106.892 25.84L107.1 27.248C106.183 27.44 105.303 27.568 104.46 27.632C103.628 27.6853 102.759 27.712 101.852 27.712H100.876V26.272ZM111.132 16.688H112.732V31.312H111.132V16.688ZM104.94 21.472H108.444V22.848H104.94V21.472ZM108.028 16.992H109.612V30.608H108.028V16.992ZM125.307 16.688H126.987V31.344H125.307V16.688ZM119.211 17.76C119.936 17.76 120.581 17.9733 121.147 18.4C121.723 18.8267 122.171 19.424 122.491 20.192C122.811 20.96 122.971 21.8667 122.971 22.912C122.971 23.968 122.811 24.8853 122.491 25.664C122.171 26.432 121.723 27.0293 121.147 27.456C120.581 27.872 119.936 28.08 119.211 28.08C118.485 28.08 117.835 27.872 117.259 27.456C116.693 27.0293 116.245 26.432 115.915 25.664C115.595 24.8853 115.435 23.968 115.435 22.912C115.435 21.8667 115.595 20.96 115.915 20.192C116.245 19.424 116.693 18.8267 117.259 18.4C117.835 17.9733 118.485 17.76 119.211 17.76ZM119.211 19.28C118.784 19.28 118.405 19.424 118.075 19.712C117.755 20 117.504 20.416 117.323 20.96C117.141 21.504 117.051 22.1547 117.051 22.912C117.051 23.68 117.141 24.336 117.323 24.88C117.504 25.424 117.755 25.8453 118.075 26.144C118.405 26.432 118.784 26.576 119.211 26.576C119.637 26.576 120.011 26.432 120.331 26.144C120.651 25.8453 120.901 25.424 121.083 24.88C121.264 24.336 121.355 23.68 121.355 22.912C121.355 22.1547 121.264 21.504 121.083 20.96C120.901 20.416 120.651 20 120.331 19.712C120.011 19.424 119.637 19.28 119.211 19.28ZM140.138 16.688H141.818V31.344H140.138V16.688ZM136.522 21.984H140.634V23.344H136.522V21.984ZM130.234 17.84H131.898V21.52H135.434V17.84H137.082V27.76H130.234V17.84ZM131.898 22.848V26.4H135.434V22.848H131.898ZM147.986 28.224H161.234V29.6H147.986V28.224ZM153.746 25.248H155.426V28.784H153.746V25.248ZM149.554 17.712H159.666V22.352H151.234V25.056H149.586V21.024H158.002V19.072H149.554V17.712ZM149.586 24.384H160.002V25.728H149.586V24.384ZM164.113 18.16H173.441V19.504H164.113V18.16ZM162.705 27.904H175.921V29.28H162.705V27.904ZM172.561 18.16H174.225V19.744C174.225 20.384 174.214 21.056 174.193 21.76C174.182 22.4533 174.139 23.216 174.065 24.048C173.99 24.8693 173.862 25.7973 173.681 26.832L172.001 26.672C172.193 25.7013 172.326 24.8107 172.401 24C172.475 23.1893 172.518 22.432 172.529 21.728C172.55 21.024 172.561 20.3627 172.561 19.744V18.16ZM187.792 16.704H189.472V27.312H187.792V16.704ZM179.936 29.664H189.888V31.024H179.936V29.664ZM179.936 26.24H181.6V30.192H179.936V26.24ZM181.584 17.68C182.32 17.68 182.981 17.8347 183.568 18.144C184.154 18.4533 184.618 18.8853 184.96 19.44C185.301 19.984 185.472 20.6133 185.472 21.328C185.472 22.032 185.301 22.6613 184.96 23.216C184.618 23.7707 184.154 24.2027 183.568 24.512C182.981 24.8213 182.32 24.976 181.584 24.976C180.848 24.976 180.186 24.8213 179.6 24.512C179.013 24.2027 178.549 23.7707 178.208 23.216C177.866 22.6613 177.696 22.032 177.696 21.328C177.696 20.6133 177.866 19.984 178.208 19.44C178.549 18.8853 179.013 18.4533 179.6 18.144C180.186 17.8347 180.848 17.68 181.584 17.68ZM181.584 19.136C181.157 19.136 180.773 19.2267 180.432 19.408C180.09 19.5893 179.824 19.8453 179.632 20.176C179.44 20.496 179.344 20.88 179.344 21.328C179.344 21.776 179.44 22.1653 179.632 22.496C179.824 22.816 180.09 23.0667 180.432 23.248C180.773 23.4293 181.157 23.52 181.584 23.52C182.01 23.52 182.394 23.4293 182.736 23.248C183.077 23.0667 183.344 22.816 183.536 22.496C183.738 22.1653 183.84 21.776 183.84 21.328C183.84 20.88 183.738 20.496 183.536 20.176C183.344 19.8453 183.077 19.5893 182.736 19.408C182.394 19.2267 182.01 19.136 181.584 19.136Z" fill="white"/>
<defs>
<clipPath id="clip0_453_4305">
<rect width="16" height="16" fill="white" transform="translate(68.5 16)"/>
</clipPath>
</defs>
</svg>
