<svg width="200" height="182" viewBox="0 0 200 182" fill="none" xmlns="http://www.w3.org/2000/svg">
<path d="M80.5625 132.875C78.2292 132.875 76.1667 132.062 74.375 130.438C72.625 128.771 71.2708 126.688 70.3125 124.188C69.3542 121.646 68.875 119.042 68.875 116.375C68.875 114 69.2917 111.75 70.125 109.625C70.9583 107.5 72.2917 105.75 74.125 104.375C79.5 100.417 84.4375 96.1875 88.9375 91.6875C93.4375 87.1458 96.3125 83.5625 97.5625 80.9375C97.6458 80.7292 97.6875 80.5417 97.6875 80.375C97.6875 79.9583 97.3958 79.75 96.8125 79.75C95.3542 79.75 92.4167 80.5208 88 82.0625C86 82.7292 84.0833 83.3333 82.25 83.875C80.4167 84.4167 78.9583 84.6875 77.875 84.6875C73.9167 84.3125 70.9167 82.7292 68.875 79.9375C66.875 77.1458 65.875 73.9792 65.875 70.4375C65.875 67.8542 66.4375 65.375 67.5625 63C68.6875 60.5833 70.4167 58.625 72.75 57.125C75.0833 55.5833 78.0625 54.8125 81.6875 54.8125C82.6458 54.8125 83.6667 54.875 84.75 55C89.875 55.75 94.5625 56.125 98.8125 56.125C104.812 56.125 111.229 55.25 118.062 53.5C119.646 53.125 121.062 52.9375 122.312 52.9375C125.146 52.9375 127.354 53.6667 128.938 55.125C130.521 56.5833 131.646 58.4167 132.312 60.625C132.979 62.7917 133.312 65.0833 133.312 67.5C133.312 70.625 132.604 73.375 131.188 75.75C129.812 78.125 127.708 80.2292 124.875 82.0625C122.583 83.6458 120.083 85.8333 117.375 88.625C114.667 91.375 112.062 94.125 109.562 96.875C107.521 99.125 105.75 101.021 104.25 102.562C102.25 104.521 101.25 105.771 101.25 106.312C101.25 106.521 101.438 106.625 101.812 106.625C102.729 106.625 104.375 106.188 106.75 105.312C108.667 104.646 110.771 104 113.062 103.375C115.354 102.75 117.562 102.417 119.688 102.375C121.438 102.375 123.062 103.167 124.562 104.75C126.062 106.333 127.271 108.333 128.188 110.75C129.146 113.125 129.625 115.562 129.625 118.062C129.625 120.146 129.208 122.125 128.375 124C127.583 125.833 126.271 127.333 124.438 128.5C122.646 129.625 120.25 130.188 117.25 130.188L112.562 129.938C110.604 129.812 108.312 129.75 105.688 129.75C98.2708 129.75 90.6042 130.708 82.6875 132.625C81.9792 132.792 81.2708 132.875 80.5625 132.875Z" fill="white"/>
<path d="M142.506 56.3516C141.542 56.3516 140.735 56.026 140.084 55.375C139.433 54.724 139.107 53.9167 139.107 52.9531C139.107 51.9115 139.459 50.8438 140.162 49.75C140.865 48.6302 141.607 47.5885 142.389 46.625L142.975 45.8828L142.115 45.2578C141.542 44.8932 140.969 44.4896 140.396 44.0469C139.85 43.5781 139.381 43.0833 138.99 42.5625C138.626 42.0156 138.443 41.4167 138.443 40.7656C138.443 39.8542 138.808 39.0339 139.537 38.3047C140.266 37.5495 141.165 37.1719 142.232 37.1719C143.691 37.1719 145.032 37.9661 146.256 39.5547L146.139 37.7578C146.035 36.7422 145.982 35.7266 145.982 34.7109C146.087 33.487 146.62 32.4844 147.584 31.7031C148.548 30.9219 149.55 30.5312 150.592 30.5312C151.295 30.5312 151.907 30.7396 152.428 31.1562C153.235 31.7552 153.639 32.875 153.639 34.5156C153.639 35.5573 153.521 36.612 153.287 37.6797L153.053 39.0469L153.6 38.4219C154.146 37.7708 154.719 37.1979 155.318 36.7031C155.917 36.1823 156.62 35.9219 157.428 35.9219C158.391 35.9219 159.212 36.2344 159.889 36.8594C160.592 37.4844 160.943 38.2396 160.943 39.125C160.943 41.0521 158.925 43.3828 154.889 46.1172C155.462 46.5339 156.061 47.0286 156.686 47.6016C157.311 48.1484 157.844 48.7604 158.287 49.4375C158.756 50.1146 158.99 50.8438 158.99 51.625C158.99 52.5625 158.626 53.4089 157.896 54.1641C157.193 54.9193 156.373 55.2969 155.436 55.2969C155.071 55.2969 154.706 55.2188 154.342 55.0625C153.535 54.6979 152.818 54.2031 152.193 53.5781C151.568 52.9531 150.969 52.2891 150.396 51.5859L149.459 50.4531C148.6 52.0156 147.571 53.3958 146.373 54.5938C145.175 55.7656 143.886 56.3516 142.506 56.3516Z" fill="#757575"/>
<path d="M42.5 2.53711C45.5376 2.53711 48 4.99954 48 8.03711C48 11.0747 45.5376 13.5371 42.5 13.5371H21V35.0371C21 38.0747 18.5376 40.5371 15.5 40.5371C12.4624 40.5371 10 38.0747 10 35.0371V8.03711C10 7.94213 10.0021 7.8477 10.0068 7.75391C10.1542 4.84795 12.5574 2.53711 15.5 2.53711H42.5Z" fill="white"/>
<path d="M42.5 181.537C45.5376 181.537 48 179.075 48 176.037C48 173 45.5376 170.537 42.5 170.537H21V149.037C21 146 18.5376 143.537 15.5 143.537C12.4624 143.537 10 146 10 149.037V176.037C10 176.132 10.0021 176.227 10.0068 176.32C10.1542 179.226 12.5574 181.537 15.5 181.537H42.5Z" fill="white"/>
<path d="M155.5 2.53711C152.462 2.53711 150 4.99954 150 8.03711C150 11.0747 152.462 13.5371 155.5 13.5371H177V35.0371C177 38.0747 179.462 40.5371 182.5 40.5371C185.538 40.5371 188 38.0747 188 35.0371V8.03711C188 7.94213 187.998 7.8477 187.993 7.75391C187.846 4.84795 185.443 2.53711 182.5 2.53711H155.5Z" fill="white"/>
<path d="M155.5 181.537C152.462 181.537 150 179.075 150 176.037C150 173 152.462 170.537 155.5 170.537H177V149.037C177 146 179.462 143.537 182.5 143.537C185.538 143.537 188 146 188 149.037V176.037C188 176.132 187.998 176.227 187.993 176.32C187.846 179.226 185.443 181.537 182.5 181.537H155.5Z" fill="white"/>
</svg>
